<?xml version="1.0" standalone="no"?>
<!DOCTYPE svg PUBLIC "-//W3C//DTD SVG 20010904//EN"
 "http://www.w3.org/TR/2001/REC-SVG-20010904/DTD/svg10.dtd">
<svg version="1.0" xmlns="http://www.w3.org/2000/svg"
 width="206.000000pt" height="206.000000pt" viewBox="0 0 206.000000 206.000000"
 preserveAspectRatio="xMidYMid meet">

<g transform="translate(0.000000,206.000000) scale(0.100000,-0.100000)"
fill="#000000" stroke="none">
<path d="M1728 2053 c18 -2 45 -2 60 0 15 2 0 4 -33 4 -33 0 -45 -2 -27 -4z"/>
<path d="M1248 2043 c6 -2 18 -2 25 0 6 3 1 5 -13 5 -14 0 -19 -2 -12 -5z"/>
<path d="M910 1996 c0 -2 7 -6 15 -10 8 -3 15 -1 15 4 0 6 -7 10 -15 10 -8 0
-15 -2 -15 -4z"/>
<path d="M1948 1983 c7 -3 16 -2 19 1 4 3 -2 6 -13 5 -11 0 -14 -3 -6 -6z"/>
<path d="M778 1943 c-102 -27 -221 -86 -254 -125 -13 -17 -36 -51 -51 -76 -15
-26 -48 -71 -74 -100 -54 -62 -108 -163 -110 -207 -3 -68 23 -343 35 -380 10
-29 11 -42 3 -47 -8 -5 -6 -13 6 -26 25 -28 21 -34 -13 -17 -29 15 -30 15 -30
-9 0 -14 13 -40 29 -58 15 -18 35 -47 44 -64 17 -33 48 -184 41 -196 -3 -4 -1
-8 4 -8 12 0 72 -159 75 -197 2 -24 -2 -28 -33 -33 -48 -8 -59 -16 -53 -40 4
-16 0 -20 -19 -20 -14 0 -37 -13 -54 -30 -16 -16 -39 -30 -51 -30 -13 0 -23
-5 -23 -10 0 -6 -11 -15 -25 -20 -14 -5 -25 -17 -25 -25 0 -12 -4 -13 -17 -7
-10 5 -30 12 -46 16 -24 6 -27 4 -27 -21 0 -16 -4 -23 -8 -17 -13 20 -53 27
-78 13 -23 -12 -24 -17 -24 -111 l0 -98 1021 0 1021 0 -14 22 c-17 26 -87 77
-105 78 -6 0 -19 -7 -27 -15 -18 -19 -49 -7 -66 25 -20 37 -77 71 -126 75 -65
5 -104 15 -104 25 0 5 -6 7 -14 4 -7 -3 -26 7 -42 21 -23 21 -35 25 -61 20
-22 -4 -38 -1 -50 10 -54 47 -77 65 -82 65 -3 1 -16 9 -28 19 l-22 19 24 51
c14 28 33 73 44 99 10 26 27 66 37 90 l19 42 67 0 c37 0 70 -5 73 -10 4 -6 15
-8 24 -5 11 3 18 0 18 -7 0 -7 3 -39 7 -70 5 -36 4 -58 -2 -58 -6 0 -10 -10
-10 -22 -1 -13 -4 -49 -8 -80 -4 -38 -3 -58 4 -58 13 0 21 38 24 107 1 29 6
53 10 53 4 0 8 7 8 16 0 20 31 76 48 87 7 5 10 13 6 18 -8 14 -44 -25 -44 -47
0 -38 -14 0 -15 41 -1 31 2 42 9 36 6 -5 68 -14 139 -20 153 -13 177 -14 177
-2 0 4 -41 11 -90 15 -130 10 -160 24 -125 60 13 13 9 15 -41 21 -42 6 -54 11
-52 23 4 20 59 36 69 20 6 -9 11 -8 23 1 9 7 13 18 9 24 -6 9 53 8 257 -8 l55
-4 -55 10 c-30 5 -107 16 -170 23 l-115 13 168 2 c128 1 167 4 167 14 0 9 -52
17 -197 30 -108 9 -200 20 -204 24 -8 9 7 138 18 156 4 7 9 59 10 117 2 80 -1
101 -9 86 -9 -16 -14 -51 -18 -129 0 -5 -4 -5 -10 -2 -5 3 -10 -1 -10 -9 0 -9
-6 -16 -12 -17 -7 0 -4 -5 7 -10 15 -7 7 -8 -30 -5 -27 2 -59 0 -70 -4 -14 -6
3 -9 50 -10 39 -1 62 -4 53 -7 -10 -2 -18 -11 -18 -19 0 -18 -14 -18 -30 1 -8
9 -29 15 -55 15 -26 0 -45 5 -48 13 -3 6 -2 64 0 127 4 84 1 137 -11 195 -8
44 -15 89 -14 100 1 11 -2 41 -6 66 l-7 46 30 -5 c26 -4 29 -1 24 17 -3 11
-14 23 -24 26 -15 5 -17 10 -9 24 7 13 3 27 -15 53 l-23 35 130 1 c71 1 134 4
139 8 27 16 -5 20 -136 16 l-145 -5 -15 36 c-20 48 -75 104 -111 113 -16 4
-32 11 -35 16 -4 6 -23 5 -48 -2 -27 -7 -47 -8 -54 -2 -19 15 -133 31 -162 23
-15 -4 -51 -4 -81 -1 -39 4 -75 0 -136 -17z m-118 -578 c7 -9 19 -14 27 -11 7
3 23 2 36 -3 13 -5 30 -5 39 0 11 6 21 4 32 -6 8 -8 25 -15 37 -15 12 0 37 -5
55 -12 28 -10 35 -8 63 12 l32 22 23 -21 c26 -24 56 -28 56 -6 0 8 -6 15 -12
15 -7 0 0 7 15 15 25 13 30 13 44 0 18 -19 24 -19 17 0 -10 25 10 17 46 -20
25 -26 37 -32 46 -24 10 8 22 5 45 -12 31 -22 31 -22 25 -1 -9 27 10 38 23 13
16 -28 13 -41 -6 -41 -13 0 -14 -3 -5 -12 7 -7 12 -20 12 -30 0 -10 16 -35 35
-57 42 -46 65 -97 61 -134 -2 -15 0 -27 4 -27 4 0 8 -10 8 -22 0 -43 15 -129
23 -134 5 -3 9 -14 9 -25 0 -10 5 -19 10 -19 13 0 13 -27 0 -35 -6 -3 -7 1 -4
9 4 10 1 16 -8 16 -7 0 -19 -14 -26 -32 -12 -33 -7 -53 8 -28 6 9 25 13 62 11
49 -1 55 1 73 29 21 31 39 41 29 15 -4 -8 -10 -15 -15 -15 -5 0 -9 -6 -9 -14
0 -31 -73 -53 -112 -34 -16 8 -17 5 -8 -17 13 -34 13 -35 -5 -35 -9 0 -15 9
-15 23 -1 22 -1 22 -24 -5 -34 -38 -82 -60 -151 -69 l-60 -8 65 3 c36 2 74 6
85 10 17 7 16 5 -4 -12 -17 -14 -20 -21 -11 -27 8 -5 9 -10 1 -18 -6 -6 -11
-22 -11 -35 0 -13 -4 -20 -10 -17 -5 3 -7 0 -4 -8 4 -12 -12 -34 -88 -115 -19
-20 -23 -21 -31 -7 -5 9 -6 23 -3 31 7 17 -30 57 -45 49 -5 -4 -6 -11 -3 -17
12 -20 -17 -25 -69 -11 -40 10 -58 11 -79 2 -18 -7 -50 -9 -90 -4 -79 9 -177
11 -203 5 -20 -5 -22 1 -10 33 5 13 3 16 -8 11 -14 -5 -28 -37 -32 -76 -3 -28
-13 -33 -32 -16 -10 9 -23 13 -30 11 -14 -5 -94 74 -91 91 1 6 -3 21 -10 33
-6 12 -13 37 -14 56 -2 19 -7 33 -12 29 -5 -3 -7 5 -4 16 4 12 2 25 -3 28 -5
3 -7 10 -4 15 4 5 2 9 -3 9 -11 0 -52 118 -52 150 0 14 0 44 0 67 1 23 -4 44
-10 48 -15 9 -12 25 5 25 16 0 48 66 40 80 -3 5 4 12 16 15 11 4 18 9 15 12
-3 3 8 23 24 43 17 21 30 47 30 58 0 11 7 26 17 33 9 8 22 29 30 46 7 18 32
45 55 60 30 20 37 29 25 31 -9 2 -17 8 -17 13 0 14 26 10 40 -6z m844 -321 c8
-3 12 -12 9 -20 -3 -8 -9 -12 -13 -9 -5 3 -16 -2 -25 -11 -22 -22 -31 -9 -15
21 14 26 19 29 44 19z m143 -16 c-3 -8 -6 -5 -6 6 -1 11 2 17 5 13 3 -3 4 -12
1 -19z m-101 -77 c-4 -5 0 -12 6 -14 9 -4 10 -6 1 -6 -6 -1 -15 4 -18 9 -3 6
-10 10 -15 10 -10 0 -8 -19 3 -37 6 -9 1 -13 -17 -13 -32 0 -40 14 -24 40 8
12 23 20 41 20 15 0 26 -4 23 -9z m74 -35 c0 -15 -37 -32 -47 -22 -4 3 1 6 10
6 10 0 16 3 16 8 -3 14 1 22 11 22 6 0 10 -6 10 -14z m-25 -176 c3 -5 -1 -10
-9 -10 -9 0 -16 5 -16 10 0 6 4 10 9 10 6 0 13 -4 16 -10z m-635 -314 c47 -1
96 -5 109 -10 26 -9 70 -54 71 -72 0 -17 -46 -44 -75 -44 -15 0 -24 -4 -20
-10 3 -6 -4 -10 -17 -11 -17 0 -13 -4 16 -15 48 -17 48 -17 40 -38 -4 -9 -17
-16 -33 -16 -15 0 -32 -5 -38 -11 -7 -7 -62 -14 -134 -17 l-122 -5 -28 33
c-16 18 -29 38 -29 44 0 6 -13 37 -29 68 -27 55 -27 58 -10 74 34 31 90 45
154 37 33 -4 98 -7 145 -7z"/>
<path d="M1193 1099 c-34 -4 -76 -15 -93 -24 -18 -9 -39 -14 -48 -10 -9 3 -14
3 -11 0 4 -3 -9 -21 -27 -39 -36 -36 -39 -43 -25 -65 7 -11 20 -3 58 36 52 53
67 59 184 69 63 6 67 8 58 25 -5 11 -15 18 -22 18 -7 -1 -40 -5 -74 -10z"/>
<path d="M572 1081 c-9 -5 17 -10 71 -13 87 -4 137 -24 137 -52 0 -12 -8 -12
-50 2 -27 8 -47 19 -44 24 3 4 -16 7 -43 7 -26 -1 -38 -4 -25 -6 20 -4 26 -12
20 -30 -2 -4 -22 -8 -46 -10 -25 -1 -40 2 -37 7 4 6 16 10 27 10 12 0 19 3 15
6 -11 11 -99 -20 -109 -39 -22 -42 12 -97 60 -97 11 0 22 -9 25 -20 3 -11 21
-27 40 -35 31 -13 41 -13 86 1 28 8 51 19 51 24 0 16 -20 22 -52 15 -19 -5
-26 -10 -18 -15 8 -5 8 -9 -4 -13 -9 -4 -16 -2 -16 3 0 5 -7 16 -16 24 -14 15
-12 16 25 16 30 0 44 5 53 20 13 20 38 28 38 11 0 -15 30 -22 50 -11 24 13 27
1 25 -80 -1 -57 0 -60 8 -30 5 19 12 42 14 50 3 8 5 27 4 43 -2 15 3 44 10 64
11 35 10 38 -17 60 -57 46 -99 61 -185 67 -46 4 -90 2 -97 -3z m113 -101 c3
-6 -4 -10 -17 -10 -13 0 -34 -3 -48 -5 -22 -5 -21 -3 5 9 36 18 52 19 60 6z
m42 -116 c-3 -3 -12 -4 -19 -1 -8 3 -5 6 6 6 11 1 17 -2 13 -5z"/>
<path d="M1210 1050 c-26 -6 -14 -8 49 -9 46 0 82 1 80 3 -9 9 -96 13 -129 6z"/>
<path d="M1094 1015 c-47 -28 -71 -69 -53 -91 16 -19 49 -17 65 4 13 16 15 16
24 1 5 -9 22 -20 37 -23 21 -6 31 -2 49 21 20 24 25 26 34 13 17 -26 12 -57
-12 -65 -29 -9 -91 -6 -98 5 -3 5 -11 5 -19 1 -9 -6 -6 -14 15 -30 23 -18 35
-21 73 -15 51 8 87 35 78 59 -5 12 0 15 23 13 22 -2 35 4 47 21 25 36 25 77
-1 88 -24 11 -98 5 -107 -9 -3 -5 -17 -5 -33 2 -15 5 -39 10 -54 11 -24 0 -25
1 -7 9 l20 9 -20 0 c-11 1 -38 -10 -61 -24z m123 -21 c-3 -3 -12 -4 -19 -1 -8
3 -5 6 6 6 11 1 17 -2 13 -5z m-27 -18 c0 -3 -4 -8 -10 -11 -5 -3 -10 -1 -10
4 0 6 5 11 10 11 6 0 10 -2 10 -4z"/>
<path d="M455 1020 c-3 -6 1 -7 9 -4 18 7 21 14 7 14 -6 0 -13 -4 -16 -10z"/>
<path d="M810 738 c-7 -12 -24 -36 -39 -53 l-26 -30 33 30 c36 32 57 63 49 72
-3 2 -11 -6 -17 -19z"/>
<path d="M790 611 c0 -11 8 -25 19 -30 10 -6 37 -26 60 -46 26 -21 54 -35 69
-35 36 0 144 77 140 99 -5 21 -62 19 -87 -3 -24 -21 -73 -20 -102 3 -13 10
-41 21 -61 25 -34 6 -38 5 -38 -13z"/>
<path d="M990 369 c-30 -5 -82 -6 -115 -2 l-60 6 24 -27 c14 -14 32 -26 42
-26 10 0 20 -4 23 -9 14 -21 74 -4 112 33 20 20 35 35 33 35 -2 -1 -29 -5 -59
-10z"/>
<path d="M1770 1771 c0 -9 13 -11 182 -32 86 -11 121 -9 107 5 -3 3 -261 36
-284 36 -3 0 -5 -4 -5 -9z"/>
<path d="M2048 1025 c-6 -30 -3 -43 8 -33 3 4 4 19 2 35 l-3 28 -7 -30z"/>
<path d="M1700 971 c0 -14 20 -18 177 -32 160 -14 206 0 53 17 -58 6 -133 15
-167 19 -44 5 -63 4 -63 -4z"/>
<path d="M2020 619 c0 -5 9 -9 20 -9 11 0 20 2 20 4 0 2 -9 6 -20 9 -11 3 -20
1 -20 -4z"/>
<path d="M1991 594 c0 -11 3 -14 6 -6 3 7 2 16 -1 19 -3 4 -6 -2 -5 -13z"/>
<path d="M1550 570 c-10 -18 -9 -19 14 -8 14 6 23 15 20 19 -9 15 -23 10 -34
-11z"/>
<path d="M1982 550 c0 -14 2 -19 5 -12 2 6 2 18 0 25 -3 6 -5 1 -5 -13z"/>
<path d="M1647 337 c-21 -45 -30 -104 -17 -112 9 -6 15 29 10 64 -1 7 8 22 19
33 23 20 26 34 12 42 -5 3 -16 -9 -24 -27z"/>
<path d="M1400 339 c0 -5 5 -7 10 -4 6 3 10 8 10 11 0 2 -4 4 -10 4 -5 0 -10
-5 -10 -11z"/>
<path d="M1580 306 c0 -8 5 -18 10 -21 6 -3 10 1 10 9 0 8 -4 18 -10 21 -5 3
-10 -1 -10 -9z"/>
<path d="M170 266 c0 -9 7 -16 16 -16 17 0 14 22 -4 28 -7 2 -12 -3 -12 -12z"/>
<path d="M30 260 c-8 -5 -10 -10 -5 -10 6 0 17 5 25 10 8 5 11 10 5 10 -5 0
-17 -5 -25 -10z"/>
<path d="M1572 258 c3 -7 13 -15 24 -17 16 -3 17 -1 5 13 -16 19 -34 21 -29 4z"/>
<path d="M1985 250 c-3 -5 -1 -10 4 -10 6 0 11 5 11 10 0 6 -2 10 -4 10 -3 0
-8 -4 -11 -10z"/>
<path d="M1660 231 c0 -5 7 -12 16 -15 22 -9 24 -8 18 9 -7 16 -34 21 -34 6z"/>
</g>
</svg>
